<svg id="visual" viewBox="0 0 960 540" width="960" height="540" xmlns="http://www.w3.org/2000/svg" xmlns:xlink="http://www.w3.org/1999/xlink" version="1.1"><rect x="0" y="0" width="960" height="540" fill="#001220"></rect><path d="M0 427L12.3 427.5C24.7 428 49.3 429 74 432.2C98.7 435.3 123.3 440.7 148 435.8C172.7 431 197.3 416 221.8 406C246.3 396 270.7 391 295.2 394.2C319.7 397.3 344.3 408.7 369 412.8C393.7 417 418.3 414 443 408.3C467.7 402.7 492.3 394.3 517 393.5C541.7 392.7 566.3 399.3 591 402.2C615.7 405 640.3 404 664.8 409.7C689.3 415.3 713.7 427.7 738.2 428.5C762.7 429.3 787.3 418.7 812 419.7C836.7 420.7 861.3 433.3 886 440.3C910.7 447.3 935.3 448.7 947.7 449.3L960 450L960 541L947.7 541C935.3 541 910.7 541 886 541C861.3 541 836.7 541 812 541C787.3 541 762.7 541 738.2 541C713.7 541 689.3 541 664.8 541C640.3 541 615.7 541 591 541C566.3 541 541.7 541 517 541C492.3 541 467.7 541 443 541C418.3 541 393.7 541 369 541C344.3 541 319.7 541 295.2 541C270.7 541 246.3 541 221.8 541C197.3 541 172.7 541 148 541C123.3 541 98.7 541 74 541C49.3 541 24.7 541 12.3 541L0 541Z" fill="#26b0e8"></path><path d="M0 453L12.3 456.5C24.7 460 49.3 467 74 466.3C98.7 465.7 123.3 457.3 148 455C172.7 452.7 197.3 456.3 221.8 456.5C246.3 456.7 270.7 453.3 295.2 445.7C319.7 438 344.3 426 369 427.2C393.7 428.3 418.3 442.7 443 445.7C467.7 448.7 492.3 440.3 517 442.8C541.7 445.3 566.3 458.7 591 461.3C615.7 464 640.3 456 664.8 454.8C689.3 453.7 713.7 459.3 738.2 455C762.7 450.7 787.3 436.3 812 428.8C836.7 421.3 861.3 420.7 886 423.2C910.7 425.7 935.3 431.3 947.7 434.2L960 437L960 541L947.7 541C935.3 541 910.7 541 886 541C861.3 541 836.7 541 812 541C787.3 541 762.7 541 738.2 541C713.7 541 689.3 541 664.8 541C640.3 541 615.7 541 591 541C566.3 541 541.7 541 517 541C492.3 541 467.7 541 443 541C418.3 541 393.7 541 369 541C344.3 541 319.7 541 295.2 541C270.7 541 246.3 541 221.8 541C197.3 541 172.7 541 148 541C123.3 541 98.7 541 74 541C49.3 541 24.7 541 12.3 541L0 541Z" fill="#0095fc"></path><path d="M0 485L12.3 479.5C24.7 474 49.3 463 74 461.3C98.7 459.7 123.3 467.3 148 473.7C172.7 480 197.3 485 221.8 484.8C246.3 484.7 270.7 479.3 295.2 477.3C319.7 475.3 344.3 476.7 369 476.5C393.7 476.3 418.3 474.7 443 473.5C467.7 472.3 492.3 471.7 517 469.8C541.7 468 566.3 465 591 462.3C615.7 459.7 640.3 457.3 664.8 460C689.3 462.7 713.7 470.3 738.2 471C762.7 471.7 787.3 465.3 812 465.5C836.7 465.7 861.3 472.3 886 473.2C910.7 474 935.3 469 947.7 466.5L960 464L960 541L947.7 541C935.3 541 910.7 541 886 541C861.3 541 836.7 541 812 541C787.3 541 762.7 541 738.2 541C713.7 541 689.3 541 664.8 541C640.3 541 615.7 541 591 541C566.3 541 541.7 541 517 541C492.3 541 467.7 541 443 541C418.3 541 393.7 541 369 541C344.3 541 319.7 541 295.2 541C270.7 541 246.3 541 221.8 541C197.3 541 172.7 541 148 541C123.3 541 98.7 541 74 541C49.3 541 24.7 541 12.3 541L0 541Z" fill="#006fff"></path><path d="M0 484L12.3 484.5C24.7 485 49.3 486 74 485.7C98.7 485.3 123.3 483.7 148 487.8C172.7 492 197.3 502 221.8 505.7C246.3 509.3 270.7 506.7 295.2 503.2C319.7 499.7 344.3 495.3 369 491.8C393.7 488.3 418.3 485.7 443 484.2C467.7 482.7 492.3 482.3 517 483.8C541.7 485.3 566.3 488.7 591 492.7C615.7 496.7 640.3 501.3 664.8 499.5C689.3 497.7 713.7 489.3 738.2 486.5C762.7 483.7 787.3 486.3 812 490.7C836.7 495 861.3 501 886 499.5C910.7 498 935.3 489 947.7 484.5L960 480L960 541L947.7 541C935.3 541 910.7 541 886 541C861.3 541 836.7 541 812 541C787.3 541 762.7 541 738.2 541C713.7 541 689.3 541 664.8 541C640.3 541 615.7 541 591 541C566.3 541 541.7 541 517 541C492.3 541 467.7 541 443 541C418.3 541 393.7 541 369 541C344.3 541 319.7 541 295.2 541C270.7 541 246.3 541 221.8 541C197.3 541 172.7 541 148 541C123.3 541 98.7 541 74 541C49.3 541 24.7 541 12.3 541L0 541Z" fill="#0039ff"></path></svg>