<svg id="visual" viewBox="0 0 960 540" width="960" height="540" xmlns="http://www.w3.org/2000/svg" xmlns:xlink="http://www.w3.org/1999/xlink" version="1.1"><path d="M0 98L32 105.2C64 112.3 128 126.7 192 145.7C256 164.7 320 188.3 384 180.3C448 172.3 512 132.7 576 115.5C640 98.3 704 103.7 768 108.2C832 112.7 896 116.3 928 118.2L960 120L960 0L928 0C896 0 832 0 768 0C704 0 640 0 576 0C512 0 448 0 384 0C320 0 256 0 192 0C128 0 64 0 32 0L0 0Z" fill="#98b9eb"></path><path d="M0 158L32 168.7C64 179.3 128 200.7 192 223.2C256 245.7 320 269.3 384 253.2C448 237 512 181 576 165.7C640 150.3 704 175.7 768 186.5C832 197.3 896 193.7 928 191.8L960 190L960 118L928 116.2C896 114.3 832 110.7 768 106.2C704 101.7 640 96.3 576 113.5C512 130.7 448 170.3 384 178.3C320 186.3 256 162.7 192 143.7C128 124.7 64 110.3 32 103.2L0 96Z" fill="#679df6"></path><path d="M0 293L32 294.7C64 296.3 128 299.7 192 310.3C256 321 320 339 384 331.8C448 324.7 512 292.3 576 276.2C640 260 704 260 768 267.2C832 274.3 896 288.7 928 295.8L960 303L960 188L928 189.8C896 191.7 832 195.3 768 184.5C704 173.7 640 148.3 576 163.7C512 179 448 235 384 251.2C320 267.3 256 243.7 192 221.2C128 198.7 64 177.3 32 166.7L0 156Z" fill="#347efc"></path><path d="M0 384L32 381.3C64 378.7 128 373.3 192 381.5C256 389.7 320 411.3 384 405C448 398.7 512 364.3 576 347.2C640 330 704 330 768 340.8C832 351.7 896 373.3 928 384.2L960 395L960 301L928 293.8C896 286.7 832 272.3 768 265.2C704 258 640 258 576 274.2C512 290.3 448 322.7 384 329.8C320 337 256 319 192 308.3C128 297.7 64 294.3 32 292.7L0 291Z" fill="#005bfd"></path><path d="M0 541L32 541C64 541 128 541 192 541C256 541 320 541 384 541C448 541 512 541 576 541C640 541 704 541 768 541C832 541 896 541 928 541L960 541L960 393L928 382.2C896 371.3 832 349.7 768 338.8C704 328 640 328 576 345.2C512 362.3 448 396.7 384 403C320 409.3 256 387.7 192 379.5C128 371.3 64 376.7 32 379.3L0 382Z" fill="#002df5"></path></svg>