<svg id="visual" viewBox="0 0 960 540" width="960" height="540" xmlns="http://www.w3.org/2000/svg" xmlns:xlink="http://www.w3.org/1999/xlink" version="1.1"><path d="M0 386L26.7 376.7C53.3 367.3 106.7 348.7 160 354.2C213.3 359.7 266.7 389.3 320 407.7C373.3 426 426.7 433 480 424.5C533.3 416 586.7 392 640 375.3C693.3 358.7 746.7 349.3 800 348.5C853.3 347.7 906.7 355.3 933.3 359.2L960 363L960 541L933.3 541C906.7 541 853.3 541 800 541C746.7 541 693.3 541 640 541C586.7 541 533.3 541 480 541C426.7 541 373.3 541 320 541C266.7 541 213.3 541 160 541C106.7 541 53.3 541 26.7 541L0 541Z" fill="#0066FF" stroke-linecap="round" stroke-linejoin="miter"></path></svg>